<?xml version="1.0"?><!DOCTYPE svg  PUBLIC '-//W3C//DTD SVG 1.1//EN'  'http://www.w3.org/Graphics/SVG/1.1/DTD/svg11.dtd'><svg xmlns="http://www.w3.org/2000/svg" xmlns:xlink="http://www.w3.org/1999/xlink" version="1.1" id="Layer_1" width="90px" height="90px" viewBox="0 0 90 90" enable-background="new 0 0 90 90" xml:space="preserve"><path d="M18.991,36.152c0.651,4.854,1.328,9.543,2.572,14.126c0.231,0.852,0.623,1.686,1.079,2.445  c0.55,0.916,1.099,1.071,1.927,0.791c1.017-0.344,1.692-1.147,1.612-2.049c-0.048-0.545-0.198-1.093-0.38-1.612  c-1.052-2.998-1.633-6.101-2.108-9.229c-0.038-0.252-0.049-0.509-0.055-0.765c-0.002-0.074,0.057-0.15,0.125-0.315h41.917  c0,0.655,0.021,1.322-0.003,1.988c-0.199,5.513-0.673,10.985-1.794,16.41c-1.164,5.633-4.443,9.588-9.204,12.503  c-1.55,0.949-1.724,1.251-1.448,3.281h15.321c-0.111,1.453-0.207,2.709-0.293,3.826c-0.132,0.165-0.155,0.201-0.185,0.228  c-0.032,0.028-0.071,0.064-0.108,0.066c-0.765,0.032-1.531,0.085-2.296,0.085c-16.235,0.005-32.469,0.004-48.835,0.004v-4.083  c1.24-0.12,2.548-0.022,3.85-0.035c1.367-0.013,2.735,0.008,4.102-0.007c1.325-0.014,2.649-0.048,3.973-0.085  c1.311-0.036,2.622-0.087,3.893-0.13c0.282-1.695,0.237-1.905-0.95-2.593c-7.918-4.585-12.345-11.648-14.163-20.4  c-1.215-5.849-2.045-11.779-3.043-17.673c-0.021-0.123-0.003-0.252-0.003-0.376c1.083-0.363,56.422-0.369,57.739,0.011  c-0.069,2.265-0.139,4.55-0.207,6.771c1.169,0.248,2.187,0.379,3.151,0.682c5.276,1.658,7.121,8.054,5.236,12.323  c-1.659,3.757-4.429,5.994-8.668,6.128c-0.214,0.007-0.428,0.038-0.64,0.025c-1.506-0.093-2.999-0.156-4.085,1.194  c-0.045,0.056-0.155,0.07-0.237,0.081c-0.081,0.011-0.167-0.008-0.399-0.024c0.406-2.595,0.88-5.17,1.194-7.764  c0.313-2.585,0.496-5.188,0.68-7.786c0.186-2.64,0.303-5.285,0.457-8.041H18.991z M70.766,54.423  c3.904,0.009,6.07-2.078,6.048-5.617c-0.019-3.149-2-5.371-4.791-5.327C71.608,47.091,71.192,50.709,70.766,54.423"/><path d="M76.286,80.412c-0.234,0.293-0.332,0.477-0.482,0.595c-1.244,0.973-2.506,1.924-3.748,2.9  c-0.907,0.713-1.894,1.047-3.073,1.044c-8.071-0.017-16.143,0.01-24.214,0.023c-9.481,0.015-18.961,0.018-28.442,0.056  c-1.253,0.005-2.339-0.269-3.314-1.083c-1.179-0.984-2.416-1.9-3.616-2.86c-0.178-0.143-0.292-0.366-0.53-0.674H76.286z"/><path d="M49.379,12.923c-0.485,0.102-0.835,0.203-1.191,0.247c-1.168,0.145-2.055,0.757-2.832,1.602  c-0.971,1.055-1.634,2.286-2.174,3.597c-0.208,0.505-0.411,1.011-0.739,1.819c-0.283-0.571-0.448-0.874-0.588-1.189  c-0.38-0.856-0.722-1.729-1.128-2.572c-0.819-1.702-2.083-2.897-3.971-3.342c-0.164-0.039-0.324-0.105-0.478-0.177  c-0.073-0.034-0.125-0.11-0.335-0.306c1.738-0.568,3.338-1.322,4.242-2.883c0.846-1.461,1.494-3.036,2.32-4.748  c0.335,0.737,0.652,1.36,0.907,2.007c0.721,1.828,1.753,3.431,3.4,4.546C47.567,12.035,48.417,12.406,49.379,12.923"/><path d="M27.327,24.574c-0.138,0.23-0.221,0.424-0.354,0.574c-0.168,0.191-0.37,0.354-0.568,0.517  c-1.141,0.942-1.377,0.956-2.564,0.13c-1.402-0.976-2.818-1.934-4.192-2.949c-1.695-1.252-1.729-2.479-0.167-3.876  c0.626-0.56,1.004-0.628,1.729-0.21c0.441,0.254,0.874,0.549,1.242,0.898c1.427,1.35,2.831,2.724,4.232,4.101  C26.92,23.991,27.098,24.28,27.327,24.574"/><path d="M57.773,24.957c0.219-0.315,0.414-0.699,0.702-0.993c1.583-1.616,3.174-3.225,4.796-4.803  c0.489-0.476,1.054-0.896,1.826-0.443c0.865,0.507,1.471,1.196,1.529,2.215c0.017,0.287-0.198,0.685-0.434,0.873  c-1.803,1.435-3.591,2.896-5.479,4.212C59.677,26.741,58.826,26.355,57.773,24.957"/><path d="M27.8,13.902c0.369-0.311,0.547-0.492,0.754-0.631c1.35-0.905,1.798-0.8,2.603,0.632c0.979,1.739,1.945,3.486,2.909,5.233  c0.121,0.219,0.201,0.462,0.353,0.816c-0.367,0.272-0.708,0.575-1.096,0.798c-0.464,0.268-0.922,0.188-1.228-0.276  C30.676,18.319,29.271,16.154,27.8,13.902"/><path d="M54.74,12.783c0.235,0,0.366-0.024,0.486,0.003c2.052,0.465,2.264,1.004,1.1,2.696c-0.846,1.229-1.658,2.482-2.5,3.714  c-0.264,0.386-0.555,0.758-0.87,1.103c-0.616,0.674-0.963,0.702-1.655,0.293c-0.701-0.414-0.437-0.935-0.186-1.43  c0.539-1.064,1.088-2.125,1.679-3.161C53.404,14.931,54.067,13.892,54.74,12.783"/></svg>