<?xml version="1.0" encoding="utf-8"?>
<!-- Generator: Adobe Illustrator 21.0.0, SVG Export Plug-In . SVG Version: 6.00 Build 0)  -->
<svg version="1.1" id="Layer_1" xmlns="http://www.w3.org/2000/svg" xmlns:xlink="http://www.w3.org/1999/xlink" x="0px" y="0px"
	 viewBox="0 0 2000 2000" style="enable-background:new 0 0 2000 2000;" xml:space="preserve">
<path d="M1538.8,1069.5c-20.1-51.8-69.7-84.2-124.7-85.2c-30.1-0.5-60.1-0.2-90.2-0.1c0-36.8,0-73.5,0-110.3
	c0-7.7-6.5-14.2-14.2-14.2c-228.6,0-457.2,0-685.8,0c-31.9,0-63.7,0-95.6,0c-3.9,0-6.8,1.5-9.1,3.5c-0.3,0.2-0.7,0.5-1,0.7
	c-0.3,0.3-0.4,0.6-0.7,0.9c-2.1,2.3-3.5,5.2-3.5,9.1c0,120.3,0,240.7,0,361.1c0,42.8-1.1,85.8,0.1,128.7
	c2.8,104.4,57.2,202.1,143.6,260.5c16,10.9,32.5,19.4,49.2,26.5c-42.9,0-85.8,0-128.8,0c-37.8,0-75.5,0-113.3,0
	c-18.3,0-18.4,28.5,0,28.5c141.2,0,282.3,0,423.5,0c35.6,0,71.7,1.3,107.5,0c88,0,175.9,0,263.9,0c37.8,0,75.5,0,113.3,0
	c18.3,0,18.4-28.5,0-28.5c-80.6,0-161.2,0-241.8,0c87.8-39.6,156-117,181.4-210.4c4.9-17.9,7.6-36,9.3-54.2c30.9,0,61.9,0,92.9,0
	c58.9-1.3,111.8-39.4,128-96.8c9.5-33.8,5-73.1,5-107.7C1547.8,1145,1552.3,1104.2,1538.8,1069.5z M1178,1591
	c-43.3,32.8-95.8,53.5-149.9,58.4c-7.3,0.7-14.6,1-21.9,1.3c-55.8,0-111.7,0-167.5,0c-37.7-1.7-75-6.8-110.5-21
	c-99.8-40.1-172.8-135.2-184-242.4c-4.3-41.4-1.6-84.2-1.6-125.7c0-124.4,0-248.9,0-373.3c223.9,0,447.7,0,671.6,0
	c27.1,0,54.2,0,81.3,0c0,36.8,0,73.6,0,110.4c0,71.1,0,142.2,0,213.3c0,37.9,0.1,75.8,0,113.7c0,9,0.1,18,0,27.1
	C1294.7,1446,1253.1,1534.2,1178,1591z M1519.3,1156.4c0,31.5,0.4,63.1,0,94.6c-0.8,58.7-45.3,105.3-104.5,106.5
	c-30.3,0-60.6,0-90.9,0c0-3.6,0-7.2,0-10.8c0.4-21,0-42.1,0-63.1c0-79.6,0-159.2,0-238.8c0-10.7,0-21.3,0-32c24.1,0,48.2,0,72.3,0
	c41.7,0,80.6,9.2,105.4,46.3C1521.6,1089,1519.3,1122.3,1519.3,1156.4z M814.8,666.7c1.3,65.8,54.2,122.7,111,150.4
	c16.4,8,30.9-16.6,14.4-24.6C881.2,763.7,828,702,848,632.9c14.1-48.8,50.4-88.5,65.7-137.4c18.5-59.3,1.8-116.8-29.4-168.5
	c-9.5-15.7-34.1-1.4-24.6,14.4c36.2,59.9,43.6,118.3,12.1,181.4C848.6,569,813.7,612.6,814.8,666.7z M955.8,604.3
	c31.9-31.5,54.7-71.4,58.1-116.7c1.3-17.7,0.1-38-6.8-54.6c-2.9-7.1-9.5-12.2-17.5-10c-6.7,1.9-12.9,10.4-10,17.5
	c1.7,4,2.8,8.4,3.7,12.6c0.5,2.2,0.9,4.4,1.3,6.7c0.1,0.4,0.3,2.1,0.4,2.6c0.1,0.9,0.2,1.9,0.3,2.8c0.6,6.4,0.7,12.8,0.4,19.2
	c-1.9,38.1-22.7,72.9-49.9,99.8C922.7,597.1,942.8,617.2,955.8,604.3z M769.1,627.3c2.9-7.1-3.1-15.6-10-17.5
	c-8.1-2.2-14.7,2.8-17.5,10c-17.2,43-17.3,98.2,5.6,138.9c11.1,19.7,27.7,35.5,46.7,47.5c15.5,9.8,29.8-14.8,14.4-24.6
	c-34.5-21.8-50.7-57.4-50.2-96.6c0.2-15.4,1.7-25.3,5.5-40.3C765.2,638.8,766.8,632.9,769.1,627.3z"/>
</svg>
