<?xml version="1.0" ?><svg xmlns="http://www.w3.org/2000/svg" xmlns:xlink="http://www.w3.org/1999/xlink" version="1.1" id="Layer_1" viewBox="0 0 24 24" enable-background="new 0 0 24 24" xml:space="preserve"><g><path d="M16.75,8.98H15V8.75c0-0.45-0.36-0.81-0.81-0.81h-7.4c-0.45,0-0.81,0.36-0.81,0.81v8.74c0,0.59,0.23,1.15,0.65,1.57   c0.42,0.42,0.98,0.65,1.57,0.65h4.58c0.59,0,1.15-0.23,1.57-0.65c0.42-0.42,0.65-0.98,0.65-1.57v-0.6c0-0.09-0.08-0.17-0.17-0.17   s-0.17,0.08-0.17,0.17v0.6c0,1.04-0.84,1.88-1.88,1.88H8.19c-1.04,0-1.88-0.84-1.88-1.88V8.75c0-0.26,0.21-0.47,0.47-0.47h2.29   v1.36H8.98c-0.18,0-0.35,0.09-0.44,0.25l-0.39,0.65C8.1,10.61,8.08,10.7,8.08,10.8v1.54c0,0.28,0.23,0.51,0.51,0.51h1.3   c0.28,0,0.51-0.23,0.51-0.51V10.8c0-0.09-0.03-0.19-0.07-0.27L9.93,9.88C9.84,9.73,9.67,9.64,9.49,9.64H9.41V8.28h4.78   c0.26,0,0.47,0.21,0.47,0.47v0.4c0,0.09,0.08,0.17,0.17,0.17h1.92c0.52,0,0.94,0.42,0.94,0.94v4.83c0,0.52-0.42,0.94-0.94,0.94H15   v-5.5h1.25c0.09,0,0.16,0.07,0.16,0.16l0.05,3.97c0,0.04-0.02,0.08-0.05,0.11c-0.03,0.03-0.07,0.05-0.11,0.05h-0.7   c-0.09,0-0.17,0.08-0.17,0.17c0,0.09,0.08,0.17,0.17,0.17h0.7c0.13,0,0.26-0.05,0.36-0.15c0.09-0.1,0.15-0.22,0.15-0.36l-0.05-3.97   c0-0.27-0.23-0.5-0.5-0.5h-1.42c-0.09,0-0.17,0.08-0.17,0.17v5.84c0,0.09,0.08,0.17,0.17,0.17h1.92c0.71,0,1.28-0.58,1.28-1.28   v-4.83C18.03,9.55,17.46,8.98,16.75,8.98z M9.64,10.06l0.39,0.65c0.02,0.03,0.02,0.06,0.02,0.09v1.54c0,0.09-0.08,0.17-0.17,0.17   h-1.3c-0.09,0-0.17-0.08-0.17-0.17V10.8c0-0.03,0.01-0.06,0.02-0.09l0.39-0.65c0.03-0.05,0.09-0.08,0.15-0.08h0.51   C9.55,9.98,9.61,10.01,9.64,10.06z"/><path d="M11.45,7.5c0.09,0,0.17-0.08,0.17-0.17V4.46c0-0.09-0.08-0.17-0.17-0.17c-0.09,0-0.17,0.08-0.17,0.17v2.87   C11.28,7.42,11.36,7.5,11.45,7.5z"/><path d="M10.58,7.5c0.09,0,0.17-0.08,0.17-0.17V6.42c0-0.09-0.08-0.17-0.17-0.17c-0.09,0-0.17,0.08-0.17,0.17v0.91   C10.41,7.42,10.48,7.5,10.58,7.5z"/><path d="M9.44,7.5c0.09,0,0.17-0.08,0.17-0.17V4.62c0-0.09-0.08-0.17-0.17-0.17c-0.09,0-0.17,0.08-0.17,0.17v2.71   C9.27,7.42,9.35,7.5,9.44,7.5z"/></g></svg>