<?xml version="1.0" encoding="iso-8859-1"?>
<!-- Generator: Adobe Illustrator 18.1.1, SVG Export Plug-In . SVG Version: 6.00 Build 0)  -->
<svg version="1.1" id="Capa_1" xmlns="http://www.w3.org/2000/svg" xmlns:xlink="http://www.w3.org/1999/xlink" x="0px" y="0px"
	 viewBox="0 0 60.89 60.89" style="enable-background:new 0 0 60.89 60.89;" xml:space="preserve">
<path d="M50.087,31.215l1.643-3.183c0.009-0.017,0.007-0.035,0.015-0.052c1.246-0.163,2.168-1.016,2.558-2.403
	c0.36-1.283,0.543-2.621,0.543-3.977c0-8.748-6.162-18.162-19.693-18.162c-12.792,0-19.694,9.357-19.694,18.162
	c0,1.443,0.211,2.877,0.642,4.307c0.032,0.088,0.716,1.919,2.556,2.356l1.882,3.171c-1.695,1.234-3.234,2.671-4.577,4.277
	l-4.673-2.798c-0.015-0.106-0.03-0.213-0.06-0.317c-0.171-0.582-0.557-1.061-1.087-1.35c-1.016-0.558-2.369-0.185-2.989,0.777
	c-0.77-0.837-1.859-1.332-3.03-1.332C1.849,30.692,0,32.54,0,34.811c0,2.041,1.493,3.726,3.442,4.052
	c-0.136,0.427-0.144,0.885-0.014,1.325c0.171,0.58,0.558,1.059,1.086,1.346c0.333,0.184,0.709,0.279,1.087,0.279
	c0.33,0,0.641-0.089,0.93-0.221l4.731,2.633c-0.788,2.45-1.218,5.059-1.218,7.767c0,1.566,0.149,3.154,0.444,4.725
	c0.08,0.426,0.452,0.734,0.885,0.734h48.188c0.433,0,0.805-0.309,0.885-0.734c0.295-1.57,0.444-3.158,0.444-4.723
	C60.89,43.415,56.614,35.821,50.087,31.215z M33.116,26.37c-0.518-1.168,0.011-2.543,1.181-3.062c1.17-0.518,2.542,0.012,3.061,1.18
	c0.313,0.706,0.234,1.501-0.164,2.149c-0.572-0.039-1.146-0.065-1.728-0.065c-0.736,0-1.463,0.038-2.183,0.1
	C33.222,26.574,33.164,26.476,33.116,26.37z M35.467,28.372c4.067,0,7.897,1.033,11.242,2.85
	c-9.402,4.587-19.221,1.732-22.997,0.295C27.176,29.52,31.189,28.372,35.467,28.372z M39.102,26.835
	c0.359-0.986,0.341-2.085-0.098-3.077c-0.924-2.078-3.364-3.016-5.438-2.096c-2.011,0.892-2.939,3.204-2.161,5.237
	c-3.464,0.559-6.693,1.821-9.541,3.634l-1.442-2.431c0.271-0.135,0.56-0.341,0.806-0.654c0.522-0.666,0.676-1.584,0.455-2.727
	c-0.046-0.24-0.097-0.481-0.148-0.723c-0.175-0.822-0.339-1.602-0.339-2.399c0-6.518,6.261-11.82,13.956-11.82
	s13.956,5.303,13.956,11.82c0,0.777-0.09,1.551-0.267,2.305c-0.129,0.34-0.581,1.695-0.037,2.793
	c0.257,0.52,0.703,0.889,1.252,1.088l-1.31,2.539C45.86,28.55,42.595,27.337,39.102,26.835z M17.619,25.407
	c-0.373-1.24-0.561-2.52-0.561-3.807c0-8.029,6.342-16.562,18.095-16.562c12.432,0,18.094,8.586,18.094,16.562
	c0,1.209-0.163,2.4-0.484,3.543c-0.243,0.867-0.707,1.271-1.461,1.271c-0.303,0-0.532-0.07-0.574-0.082
	c-0.322-0.086-0.43-0.229-0.487-0.344c-0.232-0.463,0.007-1.289,0.107-1.539c0.017-0.039,0.029-0.078,0.039-0.119
	c0.214-0.891,0.322-1.811,0.322-2.731c0-7.398-6.979-13.42-15.556-13.42c-8.577,0-15.556,6.021-15.556,13.42
	c0,0.965,0.189,1.861,0.373,2.729c0.049,0.234,0.098,0.465,0.142,0.697c0.125,0.646,0.078,1.139-0.135,1.422
	c-0.185,0.246-0.471,0.301-0.547,0.31C18.134,26.735,17.625,25.418,17.619,25.407z M1.801,34.811c0-1.279,1.041-2.318,2.32-2.318
	c0.862,0,1.649,0.473,2.055,1.236c0.004,0.007,0.011,0.011,0.015,0.018l-1.839,3.364c-0.077,0.008-0.152,0.021-0.231,0.021
	C2.842,37.131,1.801,36.09,1.801,34.811z M5.28,40.129c-0.154-0.084-0.268-0.223-0.317-0.393c-0.051-0.172-0.031-0.352,0.054-0.506
	l0.382-0.699c0.054-0.069,0.091-0.145,0.124-0.227l2.947-5.39c0.116-0.213,0.341-0.346,0.584-0.346c0.111,0,0.219,0.027,0.319,0.082
	c0.155,0.084,0.268,0.225,0.318,0.394c0.035,0.12,0.024,0.24-0.007,0.356L6.072,40C5.872,40.205,5.551,40.278,5.28,40.129z
	 M7.948,40.323l3.014-5.506l3.888,2.328c-1.193,1.652-2.192,3.452-2.965,5.368L7.948,40.323z M58.803,55.651H12.131
	c-0.19-1.219-0.286-2.447-0.286-3.658c0-7.957,3.958-15.002,10.005-19.284c1.688,0.754,6.987,2.86,13.563,2.86
	c4.068,0,8.618-0.823,13.093-3.26c6.372,4.235,10.583,11.476,10.583,19.686C59.089,53.204,58.993,54.432,58.803,55.651z"/>
<g>
</g>
<g>
</g>
<g>
</g>
<g>
</g>
<g>
</g>
<g>
</g>
<g>
</g>
<g>
</g>
<g>
</g>
<g>
</g>
<g>
</g>
<g>
</g>
<g>
</g>
<g>
</g>
<g>
</g>
</svg>
