<svg id="Layer_1" data-name="Layer 1" xmlns="http://www.w3.org/2000/svg" viewBox="0 0 96 96"><path d="M15,62.57a.73.73,0,0,1-.25,0A11.08,11.08,0,0,1,10,59.82a9.49,9.49,0,0,1-2.78-5.56c-.7-4.17-.12-7.34,1.72-9.42a8.33,8.33,0,0,1,6.57-2.53c.25,0,.49,0,.74.06A4.66,4.66,0,0,1,20.39,47v.14a1.54,1.54,0,0,0,.16.74.75.75,0,1,1-1.34.67,3,3,0,0,1-.32-1.44V47a3.16,3.16,0,0,0-2.82-3.14c-.23,0-.44,0-.65,0a6.86,6.86,0,0,0-5.37,2c-1.52,1.72-2,4.47-1.36,8.18a8.09,8.09,0,0,0,2.39,4.76,9.65,9.65,0,0,0,4.13,2.34A.75.75,0,0,1,15,62.57Z"/><path d="M14.44,68H14.3a14.61,14.61,0,0,1-9.67-7.25A20.48,20.48,0,0,1,2.48,47.85a13.22,13.22,0,0,1,2.34-6.33c2.79-3.69,7.71-4.39,10.4-4.48a15.3,15.3,0,0,1,7,1.17A10.23,10.23,0,0,1,24.93,40a.75.75,0,1,1-1,1.08,8.11,8.11,0,0,0-2.29-1.53,13.76,13.76,0,0,0-6.33-1c-2.42.09-6.84.71-9.26,3.9a11.86,11.86,0,0,0-2,5.62A19,19,0,0,0,5.94,60a13,13,0,0,0,8.64,6.51A.75.75,0,0,1,14.44,68Z"/><path d="M46.88,85.22c-10.7,0-23.27-1.76-23.47-6.74a.75.75,0,1,1,1.5-.06c.12,3,9.77,5.3,22,5.3h0c12.19,0,21.84-2.33,22-5.3a.75.75,0,1,1,1.5.06c-.2,5-12.76,6.74-23.46,6.74Z"/><path d="M44.62,29.27A.76.76,0,0,1,44,29a6.72,6.72,0,0,1-1.38-3.82,4.24,4.24,0,0,1,8.48,0A6.55,6.55,0,0,1,49.72,29a.75.75,0,0,1-1.18-.92,5.2,5.2,0,0,0,1.08-2.9,2.74,2.74,0,0,0-5.48,0,5.21,5.21,0,0,0,1.07,2.9.75.75,0,0,1-.14,1.05A.69.69,0,0,1,44.62,29.27Z"/><path d="M46.88,81.7c-7.19,0-14.82-.17-22.13-2.28C19.46,77.88,15.89,75,14.44,71.1,12.91,67,14,62.23,14.89,59A63.39,63.39,0,0,1,27.63,35.19a24.75,24.75,0,0,1,4.43-4c3.12-2.26,5.82-3.4,8-3.4H53.18a14,14,0,0,1,7,2.43,27.79,27.79,0,0,1,6.81,6A63.85,63.85,0,0,1,78.86,59c.93,3.2,2,7.94.46,12.08h0c-1.45,3.9-5,6.78-10.31,8.32C61.7,81.53,54.07,81.7,46.88,81.7ZM40.1,29.27c-2.36,0-5.2,1.7-7.16,3.12a23.34,23.34,0,0,0-4.18,3.78A62.21,62.21,0,0,0,16.33,59.44c-.87,3-1.86,7.43-.48,11.14,1.61,4.34,6,6.42,9.32,7.4,7.11,2,14.63,2.22,21.71,2.22S61.48,80,68.59,78c3.36-1,7.71-3.06,9.32-7.4,1.38-3.72.38-8.14-.49-11.14A62.42,62.42,0,0,0,65.83,37.15a26.1,26.1,0,0,0-6.43-5.67,12.67,12.67,0,0,0-6.22-2.21ZM78.62,70.84h0Z"/><path d="M76.19,75.62,75.82,75l-.52-.54a1,1,0,0,1,.2-.16,18.37,18.37,0,0,0,9.6-17.82c-.12-1.05-.34-2.14-.56-3.18a20.57,20.57,0,0,1-.61-6.22c.53-4.89,4.34-8.64,7.59-11.19-3-1.28-6.52-2.66-8.38-1.17l0,0a59.94,59.94,0,0,0-9,7.67c-.6.67-1.2,1.42-1.84,2.29a.74.74,0,0,1-1,.17.75.75,0,0,1-.17-1A27.81,27.81,0,0,1,73,41.4a60.2,60.2,0,0,1,9.14-7.85l0,0c2.67-2.13,7-.28,10.45,1.2l.54.23a.76.76,0,0,1,.38,1.21l-.15.13c-3.19,2.38-7.49,6.1-8,10.93A19.15,19.15,0,0,0,86,53c.22,1.08.45,2.19.58,3.31A19.93,19.93,0,0,1,76.19,75.62Z"/><path d="M46.87,37.44c-11.08,0-16.95-2.46-17.2-2.56a.76.76,0,0,1-.39-1,.75.75,0,0,1,1-.39c.06,0,5.87,2.44,16.61,2.44s16.55-2.42,16.61-2.44a.75.75,0,0,1,.59,1.38C63.83,35,58,37.44,46.87,37.44Z"/><path d="M44,65.24h-.16a10.14,10.14,0,0,1-3.21-.83,9.62,9.62,0,0,0-2.65-.74,9.48,9.48,0,0,0-2.68.42,10.28,10.28,0,0,1-3.32.44,10.17,10.17,0,0,1-3.15-1,9,9,0,0,0-2.63-.88,8.91,8.91,0,0,0-2.7.26,10.17,10.17,0,0,1-3.35.27A10.39,10.39,0,0,1,17,62a12.61,12.61,0,0,0-1.92-.84.76.76,0,0,1-.56-.72.74.74,0,0,1,.74-.75h0a.76.76,0,0,1,.21,0,14.05,14.05,0,0,1,2.18.94,9.12,9.12,0,0,0,2.63,1,9,9,0,0,0,2.86-.25,10.47,10.47,0,0,1,3.15-.29,10.65,10.65,0,0,1,3.07,1,8.89,8.89,0,0,0,2.67.88,9.14,9.14,0,0,0,2.83-.41A10.72,10.72,0,0,1,38,62.18a10.47,10.47,0,0,1,3.09.83,8.89,8.89,0,0,0,2.73.73,9,9,0,0,0,2.81-.58,10.56,10.56,0,0,1,3.1-.63,10.61,10.61,0,0,1,3.11.62,8.84,8.84,0,0,0,2.79.55,9,9,0,0,0,2.78-.78,10.45,10.45,0,0,1,3-.85,10.61,10.61,0,0,1,3.13.37,8.49,8.49,0,0,0,2.84.33,8.84,8.84,0,0,0,2.7-1A10.52,10.52,0,0,1,73,60.67a10.88,10.88,0,0,1,3.12.09,9.81,9.81,0,0,0,2.5.13.75.75,0,0,1,.19,1.49A11.66,11.66,0,0,1,76,62.25a9.42,9.42,0,0,0-2.68-.1,9.43,9.43,0,0,0-2.49,1,10,10,0,0,1-3.19,1.15,9.91,9.91,0,0,1-3.34-.35,9.82,9.82,0,0,0-2.7-.35,9.36,9.36,0,0,0-2.58.76,10,10,0,0,1-3.27.87,9.49,9.49,0,0,1-3.29-.61A9.71,9.71,0,0,0,49.75,64a9.26,9.26,0,0,0-2.65.56A10.52,10.52,0,0,1,44,65.24Z"/><path d="M44,49.93h-.16a9.86,9.86,0,0,1-3.21-.82,9.62,9.62,0,0,0-2.65-.74,9.88,9.88,0,0,0-2.68.41,10,10,0,0,1-3.32.45,10,10,0,0,1-3.17-1,9.46,9.46,0,0,0-2.61-.88,9.56,9.56,0,0,0-2.69.27,10.75,10.75,0,0,1-3.1.3.75.75,0,0,1,.14-1.5,9.73,9.73,0,0,0,2.67-.27,10.44,10.44,0,0,1,3.15-.29,10.81,10.81,0,0,1,3.05,1,8.49,8.49,0,0,0,2.68.88,8.85,8.85,0,0,0,2.84-.4A10.09,10.09,0,0,1,38,46.87a10.45,10.45,0,0,1,3.09.82,8.65,8.65,0,0,0,2.73.74,9.4,9.4,0,0,0,2.83-.58,10.43,10.43,0,0,1,3.07-.63,10.61,10.61,0,0,1,3.12.62,8.55,8.55,0,0,0,2.79.54,8.68,8.68,0,0,0,2.78-.77,10.82,10.82,0,0,1,3-.86,10.79,10.79,0,0,1,3.16.39,9,9,0,0,0,2.82.33,8.92,8.92,0,0,0,2.71-1,12.21,12.21,0,0,1,2.48-1A.75.75,0,0,1,73,46.89a11.38,11.38,0,0,0-2.18.91A10.07,10.07,0,0,1,67.6,49a10,10,0,0,1-3.32-.36,9.63,9.63,0,0,0-2.72-.35A9,9,0,0,0,59,49a9.9,9.9,0,0,1-3.27.87,9.49,9.49,0,0,1-3.29-.61,9.71,9.71,0,0,0-2.67-.55,9.13,9.13,0,0,0-2.63.56A10.65,10.65,0,0,1,44,49.93Z"/><path d="M86.46,38.36c-2.29,0-4.16-.67-4.91-1.69-.28-.36-1-1.67.63-3.12a.75.75,0,1,1,1,1.13c-.75.65-.5,1-.41,1.1,1,1.28,5.76,1.85,9.84-.73a.75.75,0,0,1,.81,1.27A13.22,13.22,0,0,1,86.46,38.36Z"/><path d="M84.4,30.12a.76.76,0,0,1-.72-.53,8.81,8.81,0,0,1-.17-3.15c.12-2.21.23-4.13-2.06-5.2a.75.75,0,0,1-.36-1,.73.73,0,0,1,1-.36c3.21,1.5,3,4.35,2.92,6.65a8.43,8.43,0,0,0,.11,2.62.75.75,0,0,1-.49.94A.83.83,0,0,1,84.4,30.12Z"/><path d="M88.65,30.12a.75.75,0,0,1-.71-.5c-.6-1.65-.16-3.49.26-5.27.67-2.85,1.25-5.32-2-7A.75.75,0,1,1,87,16c4.21,2.27,3.37,5.83,2.7,8.7-.39,1.64-.75,3.19-.31,4.42a.74.74,0,0,1-.45,1A.56.56,0,0,1,88.65,30.12Z"/><path d="M26.3,16.42a.75.75,0,0,1-.75-.75V8.92a.75.75,0,1,1,1.5,0v6.75A.76.76,0,0,1,26.3,16.42Z"/><path d="M26.3,11.88h0a.75.75,0,0,1-.53-.22l-1.53-1.52a.75.75,0,0,1,0-1.06.74.74,0,0,1,1.06,0l1,1,1-1a.75.75,0,1,1,1.06,1.06l-1.52,1.52A.75.75,0,0,1,26.3,11.88Z"/><path d="M26.3,22.76a.75.75,0,0,1-.75-.75V15.26a.75.75,0,0,1,1.5,0V22A.76.76,0,0,1,26.3,22.76Z"/><path d="M27.82,22.08a.79.79,0,0,1-.53-.22l-1-1-1,1a.75.75,0,0,1-1.06-1.06l1.53-1.53a.77.77,0,0,1,1.06,0l1.52,1.53a.74.74,0,0,1,0,1.06A.75.75,0,0,1,27.82,22.08Z"/><path d="M26.45,16.33a.75.75,0,0,1-.38-.1l-5.84-3.37a.75.75,0,1,1,.75-1.3l5.84,3.37a.76.76,0,0,1,.28,1A.75.75,0,0,1,26.45,16.33Z"/><path d="M20.43,14.62a.75.75,0,0,1-.19-1.47l1.36-.36-.37-1.37a.77.77,0,0,1,.53-.92.76.76,0,0,1,.92.54l.56,2.08a.75.75,0,0,1-.53.92l-2.08.56A.68.68,0,0,1,20.43,14.62Z"/><path d="M31.94,19.5a.75.75,0,0,1-.38-.1L25.72,16a.75.75,0,0,1,.75-1.3l5.84,3.37a.76.76,0,0,1,.28,1A.75.75,0,0,1,31.94,19.5Z"/><path d="M30.58,20.49a.76.76,0,0,1-.72-.56l-.56-2.09a.76.76,0,0,1,.07-.57.81.81,0,0,1,.46-.35l2.09-.55a.74.74,0,0,1,.38,1.44l-1.36.37.37,1.36a.75.75,0,0,1-.53.92A.69.69,0,0,1,30.58,20.49Z"/><path d="M20.6,19.53a.75.75,0,0,1-.65-.37.76.76,0,0,1,.28-1l5.84-3.37a.75.75,0,1,1,.75,1.3L21,19.43A.75.75,0,0,1,20.6,19.53Z"/><path d="M22,20.51a.71.71,0,0,1-.2,0,.77.77,0,0,1-.53-.92l.37-1.36-1.36-.37a.75.75,0,1,1,.39-1.44l2.08.55a.75.75,0,0,1,.53.92L22.68,20A.75.75,0,0,1,22,20.51Z"/><path d="M26.1,16.36a.73.73,0,0,1-.65-.37.75.75,0,0,1,.27-1l5.84-3.37a.75.75,0,1,1,.75,1.3l-5.84,3.37A.74.74,0,0,1,26.1,16.36Z"/><path d="M32.11,14.65a.62.62,0,0,1-.19,0l-2.09-.56a.77.77,0,0,1-.46-.35.75.75,0,0,1-.07-.57l.56-2.09a.76.76,0,0,1,.92-.53.75.75,0,0,1,.53.92l-.37,1.36,1.36.37a.75.75,0,0,1,.53.92A.74.74,0,0,1,32.11,14.65Z"/></svg>