<?xml version="1.0" encoding="UTF-8"?>
<svg xmlns="http://www.w3.org/2000/svg" id="Layer_1" data-name="Layer 1" viewBox="0 0 24 24">
  <path d="M20.315,4.43c-.091-.328-.342-.587-.667-.688-.052-.016-1.143-.352-2.806-.65-.11-.554-.212-.888-.218-.907-.099-.326-.357-.578-.685-.67-.075-.021-1.851-.515-3.94-.515s-3.865,.493-3.939,.514c-.329,.093-.588,.347-.687,.674-.006,.019-.105,.353-.216,.904-1.662,.297-2.755,.633-2.807,.649-.326,.102-.578,.362-.668,.691-.04,.148-.99,3.678-.99,8.387,0,4.749,.951,8.244,.991,8.39,.091,.328,.342,.587,.667,.688,.145,.045,3.584,1.102,7.648,1.102s7.503-1.056,7.648-1.101c.326-.102,.578-.362,.668-.691,.04-.148,.99-3.678,.99-8.387,0-4.749-.951-8.244-.991-8.39Zm-12.016,13.14c-.827,0-1.497-.67-1.497-1.497s.67-1.497,1.497-1.497,1.497,.67,1.497,1.497-.67,1.497-1.497,1.497Zm3.249-8.691c-.019,.027-.458,.675-1.043,1.355-.63,.731-1.121,1.093-1.175,1.131-.175,.125-.38,.188-.584,.188-.208,0-.415-.064-.591-.193-.023-.017-.579-.426-1.267-1.115-.126-.125-.241-.25-.347-.372-.362-.417-.318-1.048,.099-1.411,.416-.361,1.048-.318,1.411,.099,.076,.087,.16,.178,.251,.27,.148,.148,.289,.281,.416,.396,.084-.088,.175-.188,.271-.299,.506-.587,.897-1.164,.901-1.17,.31-.457,.931-.579,1.388-.268,.458,.309,.578,.93,.27,1.388Zm5.153,8.196h-2.871c-.553,0-1-.448-1-1s.447-1,1-1h2.871c.553,0,1,.448,1,1s-.447,1-1,1Zm0-6.639h-2.002c-.553,0-1-.448-1-1s.447-1,1-1h2.002c.553,0,1,.448,1,1s-.447,1-1,1Z"/>
</svg>
